{"title":"Edward Maya Ft. Yohana - Feeling [Music Video] 1080p [Sbyky]","uid":10005554,"size":57275145,"categoryP":"video","categoryS":"music_videos","magnet":"?xt=urn:btih:2a250eeed2a7a52411022bffc4ebced2c731ecb9&amp;dn=Edward+Maya+Ft.+Yohana+-+Feeling+%5BMusic+Video%5D+1080p+%5BSbyky%5D&amp;tr=udp%3A%2F%2Ftracker.openbittorrent.com%3A80&amp;tr=udp%3A%2F%2Fopen.demonii.com%3A1337&amp;tr=udp%3A%2F%2Ftracker.coppersurfer.tk%3A6969&amp;tr=udp%3A%2F%2Fexodus.desync.com%3A6969","seeders":1,"leechers":1,"uploader":"Sbyky","files":1,"time":1398044027,"description":"\n\nGeneral\nComplete name                            : Edward Maya Ft. Yohana - Feeling [Music Video] 1080p [Sbyky].MP4\nFormat                                   : MPEG-4\nFormat profile                           : Base Media\nCodec ID                                 : isom\nFile size                                : 54.6 MiB\nDuration                                 : 3mn 42s\nOverall bit rate mode                    : Variable\nOverall bit rate                         : 2 061 Kbps\nEncoded date                             : UTC 2014-03-07 05:23:15\nTagged date                              : UTC 2014-03-07 05:23:15\n\nVideo\nID                                       : 1\nFormat                                   : AVC\nFormat/Info                              : Advanced Video Codec\nFormat profile                           : &lt;a class=&quot;__cf_email__&quot; href=&quot;/cdn-cgi/l/email-protection&quot; data-cfemail=&quot;3971505e5179750d1709&quot;&gt;[email&amp;#160;protected]&lt;/a&gt;&lt;script cf-hash='f9e31' type=&quot;text/javascript&quot;&gt;\n/* &lt;![CDATA[ */!function(){try{var t=&quot;currentScript&quot;in document?document.currentScript:function(){for(var t=document.getElementsByTagName(&quot;script&quot;),e=t.length;e--;)if(t[e].getAttribute(&quot;cf-hash&quot;))return t[e]}();if(t&amp;&amp;t.previousSibling){var e,r,n,i,c=t.previousSibling,a=c.getAttribute(&quot;data-cfemail&quot;);if(a){for(e=&quot;&quot;,r=parseInt(a.substr(0,2),16),n=2;a.length-n;n+=2)i=parseInt(a.substr(n,2),16)^r,e+=String.fromCharCode(i);e=document.createTextNode(e),c.parentNode.replaceChild(e,c)}}}catch(u){}}();/* ]]&gt; */&lt;/script&gt;\nFormat settings, CABAC                   : Yes\nFormat settings, ReFrames                : 3 frames\nCodec ID                                 : avc1\nCodec ID/Info                            : Advanced Video Coding\nDuration                                 : 3mn 42s\nDuration_LastFrame                       : -39ms\nBit rate                                 : 1 934 Kbps\nWidth                                    : 1 920 pixels\nHeight                                   : 1 080 pixels\nDisplay aspect ratio                     : 16:9\nFrame rate mode                          : Constant\nFrame rate                               : 25.000 fps\nColor space                              : YUV\nChroma subsampling                       : 4:2:0\nBit depth                                : 8 bits\nScan type                                : Progressive\nBits/(Pixel*Frame)                       : 0.037\nStream size                              : 51.2 MiB (94%)\nEncoded date                             : UTC 2014-03-07 05:23:15\nTagged date                              : UTC 2014-03-07 05:23:15\n\nAudio\nID                                       : 2\nFormat                                   : AAC\nFormat/Info                              : Advanced Audio Codec\nFormat profile                           : LC\nCodec ID                                 : 40\nDuration                                 : 3mn 42s\nBit rate mode                            : Variable\nBit rate                                 : 126 Kbps\nChannel(s)                               : 2 channels\nChannel positions                        : Front: L R\nSampling rate                            : 44.1 KHz\nCompression mode                         : Lossy\nStream size                              : 3.33 MiB (6%)\nEncoded date                             : UTC 2014-03-07 05:21:46\nTagged date                              : UTC 2014-03-07 05:21:46\n\nShared By Sbyky\n","torrent":{"xt":"urn:btih:2a250eeed2a7a52411022bffc4ebced2c731ecb9","amp;dn":"Edward+Maya+Ft.+Yohana+-+Feeling+%5BMusic+Video%5D+1080p+%5BSbyky%5D","amp;tr":["udp%3A%2F%2Ftracker.openbittorrent.com%3A80","udp%3A%2F%2Fopen.demonii.com%3A1337","udp%3A%2F%2Ftracker.coppersurfer.tk%3A6969","udp%3A%2F%2Fexodus.desync.com%3A6969"],"infoHash":"2a250eeed2a7a52411022bffc4ebced2c731ecb9","infoHashBuffer":{"type":"Buffer","data":[42,37,14,238,210,167,165,36,17,2,43,255,196,235,206,210,199,49,236,185]},"announce":[],"urlList":[]}}